<svg width="230" height="123" viewBox="0 0 230 123" fill="none" xmlns="http://www.w3.org/2000/svg">
<path d="M4.63844 72.124H106.305C107.428 72.124 108.506 71.6777 109.3 70.8833C110.095 70.0889 110.541 69.0114 110.541 67.8879V4.34645C110.541 3.22297 110.095 2.1455 109.3 1.35108C108.506 0.556654 107.428 0.110352 106.305 0.110352H4.63844C3.51496 0.110352 2.43749 0.556654 1.64307 1.35108C0.848646 2.1455 0.402344 3.22297 0.402344 4.34645V67.8879C0.402344 69.0114 0.848646 70.0889 1.64307 70.8833C2.43749 71.6777 3.51496 72.124 4.63844 72.124ZM8.87454 8.58255H102.069V63.6518H8.87454V8.58255Z" fill="#E6367E"/>
<path d="M123.248 33.9991H148.664C149.788 33.9991 150.865 33.5528 151.66 32.7584C152.454 31.964 152.901 30.8865 152.901 29.763V4.34645C152.901 3.22297 152.454 2.1455 151.66 1.35108C150.865 0.556654 149.788 0.110352 148.664 0.110352H123.248C122.124 0.110352 121.047 0.556654 120.252 1.35108C119.458 2.1455 119.012 3.22297 119.012 4.34645V29.763C119.012 30.8865 119.458 31.964 120.252 32.7584C121.047 33.5528 122.124 33.9991 123.248 33.9991ZM127.484 8.58255H144.428V25.5269H127.484V8.58255Z" fill="#004EA2"/>
<path d="M123.248 72.1241H148.664C149.788 72.1241 150.865 71.6778 151.66 70.8834C152.454 70.089 152.901 69.0115 152.901 67.888V42.4714C152.901 41.348 152.454 40.2705 151.66 39.4761C150.865 38.6817 149.788 38.2354 148.664 38.2354H123.248C122.124 38.2354 121.047 38.6817 120.252 39.4761C119.458 40.2705 119.012 41.348 119.012 42.4714V67.888C119.012 69.0115 119.458 70.089 120.252 70.8834C121.047 71.6778 122.124 72.1241 123.248 72.1241ZM127.484 46.7075H144.428V63.6519H127.484V46.7075Z" fill="#004EA2"/>
<path d="M161.373 33.9991H186.789C187.913 33.9991 188.99 33.5528 189.785 32.7584C190.579 31.964 191.026 30.8865 191.026 29.763V4.34645C191.026 3.22297 190.579 2.1455 189.785 1.35108C188.99 0.556654 187.913 0.110352 186.789 0.110352H161.373C160.249 0.110352 159.172 0.556654 158.377 1.35108C157.583 2.1455 157.137 3.22297 157.137 4.34645V29.763C157.137 30.8865 157.583 31.964 158.377 32.7584C159.172 33.5528 160.249 33.9991 161.373 33.9991ZM165.609 8.58255H182.553V25.5269H165.609V8.58255Z" fill="#004EA2"/>
<path d="M161.373 72.1241H186.789C187.913 72.1241 188.99 71.6778 189.785 70.8834C190.579 70.089 191.026 69.0115 191.026 67.888V42.4714C191.026 41.348 190.579 40.2705 189.785 39.4761C188.99 38.6817 187.913 38.2354 186.789 38.2354H161.373C160.249 38.2354 159.172 38.6817 158.377 39.4761C157.583 40.2705 157.137 41.348 157.137 42.4714V67.888C157.137 69.0115 157.583 70.089 158.377 70.8834C159.172 71.6778 160.249 72.1241 161.373 72.1241ZM165.609 46.7075H182.553V63.6519H165.609V46.7075Z" fill="#004EA2"/>
<path d="M199.5 33.9991H224.916C226.04 33.9991 227.117 33.5528 227.912 32.7584C228.706 31.964 229.152 30.8865 229.152 29.763V4.34645C229.152 3.22297 228.706 2.1455 227.912 1.35108C227.117 0.556654 226.04 0.110352 224.916 0.110352H199.5C198.376 0.110352 197.299 0.556654 196.504 1.35108C195.71 2.1455 195.264 3.22297 195.264 4.34645V29.763C195.264 30.8865 195.71 31.964 196.504 32.7584C197.299 33.5528 198.376 33.9991 199.5 33.9991ZM203.736 8.58255H220.68V25.5269H203.736V8.58255Z" fill="#004EA2"/>
<path d="M199.5 72.1241H224.916C226.04 72.1241 227.117 71.6778 227.912 70.8834C228.706 70.089 229.152 69.0115 229.152 67.888V42.4714C229.152 41.348 228.706 40.2705 227.912 39.4761C227.117 38.6817 226.04 38.2354 224.916 38.2354H199.5C198.376 38.2354 197.299 38.6817 196.504 39.4761C195.71 40.2705 195.264 41.348 195.264 42.4714V67.888C195.264 69.0115 195.71 70.089 196.504 70.8834C197.299 71.6778 198.376 72.1241 199.5 72.1241ZM203.736 46.7075H220.68V63.6519H203.736V46.7075Z" fill="#004EA2"/>
<path d="M4.63844 89.0684H106.305C107.428 89.0684 108.506 88.6221 109.3 87.8277C110.095 87.0332 110.541 85.9558 110.541 84.8323C110.541 83.7088 110.095 82.6313 109.3 81.8369C108.506 81.0425 107.428 80.5962 106.305 80.5962H4.63844C3.51496 80.5962 2.43749 81.0425 1.64307 81.8369C0.848646 82.6313 0.402344 83.7088 0.402344 84.8323C0.402344 85.9558 0.848646 87.0332 1.64307 87.8277C2.43749 88.6221 3.51496 89.0684 4.63844 89.0684Z" fill="#0A3A68"/>
<path d="M4.63844 106.013H106.305C107.428 106.013 108.506 105.566 109.3 104.772C110.095 103.978 110.541 102.9 110.541 101.777C110.541 100.653 110.095 99.5757 109.3 98.7812C108.506 97.9868 107.428 97.5405 106.305 97.5405H4.63844C3.51496 97.5405 2.43749 97.9868 1.64307 98.7812C0.848646 99.5757 0.402344 100.653 0.402344 101.777C0.402344 102.9 0.848646 103.978 1.64307 104.772C2.43749 105.566 3.51496 106.013 4.63844 106.013Z" fill="#0A3A68"/>
<path d="M4.63844 122.957H63.9438C65.0673 122.957 66.1448 122.511 66.9392 121.716C67.7336 120.922 68.1799 119.844 68.1799 118.721C68.1799 117.597 67.7336 116.52 66.9392 115.726C66.1448 114.931 65.0673 114.485 63.9438 114.485H4.63844C3.51496 114.485 2.43749 114.931 1.64307 115.726C0.848646 116.52 0.402344 117.597 0.402344 118.721C0.402344 119.844 0.848646 120.922 1.64307 121.716C2.43749 122.511 3.51496 122.957 4.63844 122.957Z" fill="#0A3A68"/>
<path d="M80.8887 114.485H76.6526C75.5291 114.485 74.4516 114.931 73.6572 115.726C72.8628 116.52 72.4165 117.597 72.4165 118.721C72.4165 119.844 72.8628 120.922 73.6572 121.716C74.4516 122.511 75.5291 122.957 76.6526 122.957H80.8887C82.0122 122.957 83.0897 122.511 83.8841 121.716C84.6785 120.922 85.1248 119.844 85.1248 118.721C85.1248 117.597 84.6785 116.52 83.8841 115.726C83.0897 114.931 82.0122 114.485 80.8887 114.485Z" fill="#0A3A68"/>
<path d="M123.249 89.0684H224.915C226.038 89.0684 227.116 88.6221 227.91 87.8277C228.705 87.0332 229.151 85.9558 229.151 84.8323C229.151 83.7088 228.705 82.6313 227.91 81.8369C227.116 81.0425 226.038 80.5962 224.915 80.5962H123.249C122.125 80.5962 121.048 81.0425 120.253 81.8369C119.459 82.6313 119.012 83.7088 119.012 84.8323C119.012 85.9558 119.459 87.0332 120.253 87.8277C121.048 88.6221 122.125 89.0684 123.249 89.0684Z" fill="#E6367E"/>
<path d="M123.249 106.013H224.915C226.038 106.013 227.116 105.566 227.91 104.772C228.705 103.978 229.151 102.9 229.151 101.777C229.151 100.653 228.705 99.5757 227.91 98.7812C227.116 97.9868 226.038 97.5405 224.915 97.5405H123.249C122.125 97.5405 121.048 97.9868 120.253 98.7812C119.459 99.5757 119.012 100.653 119.012 101.777C119.012 102.9 119.459 103.978 120.253 104.772C121.048 105.566 122.125 106.013 123.249 106.013Z" fill="#E6367E"/>
<path d="M123.249 122.957H182.554C183.677 122.957 184.755 122.511 185.549 121.716C186.344 120.922 186.79 119.844 186.79 118.721C186.79 117.597 186.344 116.52 185.549 115.726C184.755 114.931 183.677 114.485 182.554 114.485H123.249C122.125 114.485 121.048 114.931 120.253 115.726C119.459 116.52 119.012 117.597 119.012 118.721C119.012 119.844 119.459 120.922 120.253 121.716C121.048 122.511 122.125 122.957 123.249 122.957Z" fill="#E6367E"/>
<path d="M199.498 114.485H195.261C194.138 114.485 193.061 114.931 192.266 115.726C191.472 116.52 191.025 117.597 191.025 118.721C191.025 119.844 191.472 120.922 192.266 121.716C193.061 122.511 194.138 122.957 195.261 122.957H199.498C200.621 122.957 201.699 122.511 202.493 121.716C203.287 120.922 203.734 119.844 203.734 118.721C203.734 117.597 203.287 116.52 202.493 115.726C201.699 114.931 200.621 114.485 199.498 114.485Z" fill="#E6367E"/>
</svg>
